<svg width="158" height="42" viewBox="0 0 1146 358" fill="none" xmlns="http://www.w3.org/2000/svg">
<g clip-path="url(#clip0_2233_495)">
<path d="M134.25 74.5833V80.2516C121.869 75.3291 108.593 72.7933 95.3176 72.7933C74.1359 72.7933 52.9542 79.2075 34.9051 92.0358C27.2976 97.4058 26.4026 108.295 32.9659 114.858L71.3017 153.194H87.8592V169.752C100.688 182.58 117.394 189.292 134.25 190.038V223.75H104.417C96.2126 223.75 89.5001 230.462 89.5001 238.667V268.5C89.5001 284.908 102.925 298.333 119.333 298.333H268.5C293.262 298.333 313.25 278.345 313.25 253.583V74.5833C313.25 66.3791 306.538 59.6666 298.333 59.6666H149.167C140.963 59.6666 134.25 66.3791 134.25 74.5833ZM117.693 155.282V123.212H83.6826L68.1692 107.698C76.6717 104.417 85.9201 102.627 95.3176 102.627C115.306 102.627 133.952 110.383 148.123 124.405L169.155 145.437L166.172 148.421C158.564 156.028 148.421 160.354 137.532 160.354C130.521 160.354 123.659 158.564 117.693 155.282ZM283.417 253.583C283.417 261.787 276.704 268.5 268.5 268.5C260.296 268.5 253.583 261.787 253.583 253.583V238.667C253.583 230.462 246.871 223.75 238.667 223.75H164.083V185.116C172.586 181.685 180.492 176.613 187.353 169.752L190.337 166.768L232.551 208.833H253.583V187.801L164.083 98.7483V89.5H283.417V253.583Z" fill="#F96F38"/>
</g>
<path d="M496.849 157.622H470.287C469.529 153.266 468.133 149.407 466.097 146.045C464.061 142.636 461.527 139.748 458.497 137.381C455.467 135.013 452.01 133.238 448.128 132.054C444.293 130.823 440.15 130.207 435.699 130.207C427.792 130.207 420.784 132.196 414.676 136.173C408.568 140.103 403.786 145.88 400.33 153.503C396.873 161.079 395.145 170.335 395.145 181.273C395.145 192.4 396.873 201.775 400.33 209.398C403.833 216.973 408.616 222.703 414.676 226.585C420.784 230.42 427.768 232.338 435.628 232.338C439.984 232.338 444.056 231.77 447.844 230.634C451.679 229.45 455.112 227.722 458.142 225.449C461.22 223.176 463.8 220.383 465.884 217.068C468.014 213.754 469.482 209.966 470.287 205.705L496.849 205.847C495.855 212.759 493.701 219.246 490.386 225.307C487.119 231.367 482.834 236.718 477.531 241.358C472.228 245.951 466.026 249.549 458.923 252.153C451.821 254.71 443.938 255.989 435.273 255.989C422.489 255.989 411.078 253.029 401.04 247.111C391.002 241.192 383.095 232.646 377.318 221.472C371.542 210.297 368.653 196.898 368.653 181.273C368.653 165.6 371.565 152.201 377.389 141.074C383.213 129.9 391.144 121.353 401.182 115.435C411.22 109.516 422.583 106.557 435.273 106.557C443.369 106.557 450.898 107.693 457.858 109.966C464.818 112.239 471.021 115.577 476.466 119.98C481.911 124.336 486.385 129.687 489.889 136.031C493.44 142.329 495.76 149.526 496.849 157.622ZM563.428 256.131C552.775 256.131 543.542 253.787 535.729 249.099C527.917 244.412 521.856 237.854 517.548 229.426C513.286 220.998 511.156 211.15 511.156 199.881C511.156 188.612 513.286 178.74 517.548 170.264C521.856 161.789 527.917 155.207 535.729 150.52C543.542 145.832 552.775 143.489 563.428 143.489C574.082 143.489 583.315 145.832 591.127 150.52C598.94 155.207 604.977 161.789 609.238 170.264C613.547 178.74 615.701 188.612 615.701 199.881C615.701 211.15 613.547 220.998 609.238 229.426C604.977 237.854 598.94 244.412 591.127 249.099C583.315 253.787 574.082 256.131 563.428 256.131ZM563.57 235.534C569.347 235.534 574.176 233.948 578.059 230.776C581.942 227.556 584.83 223.247 586.724 217.849C588.665 212.452 589.636 206.438 589.636 199.81C589.636 193.134 588.665 187.097 586.724 181.699C584.83 176.254 581.942 171.921 578.059 168.702C574.176 165.482 569.347 163.872 563.57 163.872C557.652 163.872 552.728 165.482 548.798 168.702C544.915 171.921 542.003 176.254 540.062 181.699C538.168 187.097 537.221 193.134 537.221 199.81C537.221 206.438 538.168 212.452 540.062 217.849C542.003 223.247 544.915 227.556 548.798 230.776C552.728 233.948 557.652 235.534 563.57 235.534ZM703.054 208.119V144.909H728.764V254H703.835V234.611H702.699C700.237 240.719 696.188 245.714 690.554 249.597C684.967 253.479 678.078 255.42 669.886 255.42C662.737 255.42 656.416 253.834 650.923 250.662C645.478 247.442 641.217 242.778 638.139 236.67C635.062 230.515 633.523 223.081 633.523 214.369V144.909H659.233V210.392C659.233 217.305 661.127 222.797 664.915 226.869C668.703 230.941 673.674 232.977 679.83 232.977C683.617 232.977 687.287 232.054 690.838 230.207C694.389 228.361 697.301 225.615 699.574 221.969C701.894 218.276 703.054 213.659 703.054 208.119ZM751.202 254V144.909H776.131V163.091H777.268C779.256 156.794 782.665 151.94 787.495 148.531C792.372 145.075 797.935 143.347 804.185 143.347C805.606 143.347 807.192 143.418 808.944 143.56C810.743 143.654 812.235 143.82 813.418 144.057V167.707C812.329 167.329 810.601 166.997 808.234 166.713C805.914 166.382 803.665 166.216 801.487 166.216C796.799 166.216 792.585 167.234 788.844 169.27C785.151 171.259 782.239 174.028 780.109 177.58C777.978 181.131 776.913 185.226 776.913 189.866V254H751.202ZM912.721 173.744L889.283 176.301C888.621 173.934 887.46 171.708 885.803 169.625C884.193 167.542 882.015 165.861 879.269 164.582C876.523 163.304 873.161 162.665 869.184 162.665C863.834 162.665 859.335 163.825 855.69 166.145C852.091 168.465 850.316 171.472 850.363 175.165C850.316 178.337 851.476 180.918 853.843 182.906C856.258 184.895 860.235 186.528 865.775 187.807L884.383 191.784C894.705 194.009 902.375 197.537 907.394 202.366C912.46 207.196 915.017 213.517 915.065 221.33C915.017 228.195 913.005 234.256 909.028 239.511C905.098 244.72 899.629 248.792 892.621 251.727C885.614 254.663 877.565 256.131 868.474 256.131C855.121 256.131 844.373 253.337 836.229 247.75C828.085 242.116 823.232 234.279 821.67 224.241L846.741 221.827C847.877 226.751 850.292 230.468 853.985 232.977C857.678 235.487 862.484 236.741 868.403 236.741C874.511 236.741 879.411 235.487 883.104 232.977C886.845 230.468 888.715 227.366 888.715 223.673C888.715 220.548 887.508 217.968 885.093 215.932C882.726 213.896 879.032 212.333 874.013 211.244L855.406 207.338C844.942 205.16 837.2 201.491 832.181 196.33C827.162 191.121 824.676 184.54 824.724 176.585C824.676 169.862 826.499 164.038 830.192 159.114C833.933 154.142 839.118 150.307 845.746 147.608C852.423 144.862 860.117 143.489 868.829 143.489C881.613 143.489 891.674 146.211 899.013 151.656C906.4 157.101 910.969 164.464 912.721 173.744ZM980.56 256.131C969.623 256.131 960.177 253.858 952.222 249.312C944.315 244.72 938.231 238.233 933.969 229.852C929.708 221.424 927.577 211.505 927.577 200.094C927.577 188.872 929.708 179.024 933.969 170.548C938.278 162.026 944.291 155.397 952.009 150.662C959.727 145.88 968.794 143.489 979.211 143.489C985.934 143.489 992.279 144.578 998.245 146.756C1004.26 148.886 1009.56 152.201 1014.15 156.699C1018.79 161.197 1022.44 166.926 1025.09 173.886C1027.74 180.799 1029.07 189.038 1029.07 198.602V206.486H939.651V189.156H1004.42C1004.38 184.232 1003.31 179.852 1001.23 176.017C999.145 172.134 996.233 169.08 992.492 166.855C988.799 164.63 984.49 163.517 979.566 163.517C974.31 163.517 969.694 164.795 965.717 167.352C961.739 169.862 958.638 173.176 956.413 177.295C954.235 181.367 953.122 185.842 953.075 190.719V205.847C953.075 212.191 954.235 217.636 956.555 222.182C958.875 226.68 962.118 230.136 966.285 232.551C970.451 234.919 975.328 236.102 980.915 236.102C984.656 236.102 988.041 235.581 991.072 234.54C994.102 233.451 996.73 231.865 998.955 229.781C1001.18 227.698 1002.86 225.117 1004 222.04L1028 224.739C1026.49 231.083 1023.6 236.623 1019.34 241.358C1015.12 246.045 1009.73 249.691 1003.15 252.295C996.564 254.852 989.036 256.131 980.56 256.131ZM1059.67 294.909C1056.17 294.909 1052.93 294.625 1049.94 294.057C1047.01 293.536 1044.67 292.92 1042.91 292.21L1048.88 272.182C1052.62 273.271 1055.96 273.792 1058.89 273.744C1061.83 273.697 1064.41 272.774 1066.63 270.974C1068.91 269.223 1070.83 266.287 1072.39 262.168L1074.59 256.273L1035.03 144.909H1062.3L1087.44 227.295H1088.58L1113.79 144.909H1141.14L1097.46 267.21C1095.42 272.987 1092.72 277.935 1089.36 282.054C1086 286.221 1081.88 289.393 1077 291.571C1072.17 293.796 1066.4 294.909 1059.67 294.909Z" fill="black"/>
<defs>
<clipPath id="clip0_2233_495">
<rect width="358" height="358" fill="white"/>
</clipPath>
</defs>
</svg>
